<?xml version="1.0" standalone="no"?>
<!DOCTYPE svg PUBLIC "-//W3C//DTD SVG 20010904//EN"
 "http://www.w3.org/TR/2001/REC-SVG-20010904/DTD/svg10.dtd">
<svg version="1.0" xmlns="http://www.w3.org/2000/svg"
 width="1281.000000pt" height="254.000000pt" viewBox="0 0 1281.000000 254.000000"
 preserveAspectRatio="xMidYMid meet">

<g transform="translate(0.000000,254.000000) scale(0.100000,-0.100000)"
fill="#000000" stroke="none">
<path d="M0 1270 l0 -1270 6405 0 6405 0 0 1270 0 1270 -6405 0 -6405 0 0
-1270z m5960 805 l0 -34 -92 -3 -93 -3 -5 -135 c-5 -132 -13 -163 -45 -190
-13 -11 -14 -15 -2 -29 35 -40 42 -69 47 -196 l5 -130 183 -3 182 -2 0 -35 0
-35 -189 0 c-104 0 -201 4 -215 10 -41 15 -49 45 -55 197 -5 129 -8 144 -28
165 -13 14 -23 31 -23 40 0 8 10 28 23 44 20 25 23 44 28 169 3 77 10 148 14
159 14 31 64 45 168 46 l97 0 0 -35z m695 21 c44 -19 55 -58 55 -205 0 -106 2
-116 25 -147 31 -41 31 -57 1 -97 -22 -29 -24 -43 -28 -167 -4 -145 -13 -175
-54 -190 -14 -6 -70 -10 -125 -10 l-99 0 0 35 0 34 93 3 92 3 5 136 c6 129 7
139 33 172 16 21 23 38 17 42 -32 19 -45 73 -50 200 l-5 130 -182 3 -183 2 0
35 0 35 185 0 c138 0 194 -4 220 -14z m-620 -266 l110 -110 -72 0 c-62 0 -75
-3 -102 -26 -41 -34 -44 -92 -6 -129 24 -25 27 -25 192 -25 l169 0 44 -45 44
-45 -212 0 c-232 0 -255 4 -304 56 -52 56 -62 128 -27 201 11 23 34 52 51 64
l30 22 -73 73 -73 74 59 0 60 0 110 -110z m392 99 c34 -13 80 -55 99 -91 32
-62 10 -165 -47 -212 -16 -14 -29 -28 -29 -33 0 -4 30 -38 67 -75 l67 -68 -59
0 -60 0 -110 110 -110 110 73 0 c85 0 116 15 132 65 13 39 -5 86 -39 105 -11
6 -90 10 -183 10 l-164 0 -44 45 -44 45 211 0 c125 0 223 -4 240 -11z m-1378
-863 c80 -42 88 -155 16 -213 l-33 -27 39 -57 c21 -32 39 -63 39 -69 0 -7 -16
-10 -42 -8 -41 3 -45 6 -87 71 l-44 67 -63 0 -64 0 0 -70 0 -70 -40 0 -40 0 0
195 0 195 145 0 c108 0 153 -4 174 -14z m552 4 c0 -5 1 -25 2 -42 l1 -33 -137
-3 -137 -3 0 -29 0 -30 121 0 120 0 -3 -42 -3 -43 -117 -3 -118 -3 0 -29 0
-30 135 0 135 0 0 -45 0 -45 -177 2 -178 3 -2 185 c-1 101 1 188 3 192 8 12
354 10 355 -2z m489 -7 c43 -25 50 -53 50 -187 0 -116 -1 -125 -24 -149 -13
-14 -36 -29 -50 -33 -31 -7 -30 -7 -11 -44 l16 -30 -46 0 c-42 0 -47 3 -62 34
-16 34 -16 34 -94 38 -70 3 -82 6 -106 31 -27 27 -28 31 -31 150 -2 109 -1
126 18 155 11 18 30 37 43 42 12 5 78 9 145 9 99 1 130 -2 152 -16z m530 -20
c41 -45 48 -95 22 -148 -12 -24 -30 -46 -41 -50 -29 -9 -26 -22 14 -79 46 -65
45 -76 -5 -76 -39 0 -42 2 -86 70 l-45 70 -64 0 -65 0 0 -70 0 -70 -40 0 -40
0 0 196 0 195 161 -3 161 -3 28 -32z m528 -10 l3 -43 -140 0 -141 0 0 -30 0
-30 120 0 120 0 0 -45 0 -45 -120 0 -120 0 0 -30 0 -30 141 0 140 0 -3 -42 -3
-43 -177 -3 -178 -2 0 195 0 195 178 -2 177 -3 3 -42z m436 37 c31 -11 67 -67
64 -95 -3 -16 -9 -19 -38 -17 -19 2 -42 10 -51 18 -23 20 -172 20 -189 -1 -10
-12 -10 -18 0 -30 10 -12 37 -15 119 -15 71 0 112 -4 123 -12 32 -26 48 -63
48 -110 0 -39 -6 -54 -29 -80 l-29 -33 -120 -3 c-138 -4 -169 6 -196 62 -20
42 -20 56 -2 56 8 0 21 3 29 6 8 3 24 -4 35 -16 17 -19 28 -20 123 -18 103 3
104 3 104 28 0 25 0 25 -115 30 -130 6 -155 16 -177 67 -21 53 -9 105 33 143
34 29 37 30 139 30 57 0 115 -4 129 -10z"/>
<path d="M4817 983 c-4 -3 -7 -19 -7 -35 l0 -29 108 3 c104 3 107 4 110 27 2
13 -2 28 -10 32 -15 10 -192 12 -201 2z"/>
<path d="M5826 974 c-12 -11 -16 -35 -16 -85 0 -108 2 -109 123 -109 67 0 107
4 115 12 7 7 12 43 12 93 0 50 -5 86 -12 93 -19 19 -202 16 -222 -4z"/>
<path d="M6357 984 c-4 -4 -7 -20 -7 -36 l0 -29 108 3 107 3 0 30 0 30 -101 3
c-55 1 -103 0 -107 -4z"/>
</g>
</svg>
